<?xml version="1.0" encoding="UTF-8"?>
<!DOCTYPE svg PUBLIC "-//W3C//DTD SVG 1.1//EN" "http://www.w3.org/Graphics/SVG/1.1/DTD/svg11.dtd">
<svg xmlns="http://www.w3.org/2000/svg" version="1.1" viewBox="0 0 225 225" stroke="none">
	<rect width="100%" height="100%" fill="#FFFFFF"/>
	<path d="M100,100h1v1h-1z M101,100h1v1h-1z M102,100h1v1h-1z M103,100h1v1h-1z M104,100h1v1h-1z M105,100h1v1h-1z M106,100h1v1h-1z M108,100h1v1h-1z M110,100h1v1h-1z M111,100h1v1h-1z M114,100h1v1h-1z M116,100h1v1h-1z M118,100h1v1h-1z M119,100h1v1h-1z M120,100h1v1h-1z M121,100h1v1h-1z M122,100h1v1h-1z M123,100h1v1h-1z M124,100h1v1h-1z M100,101h1v1h-1z M106,101h1v1h-1z M108,101h1v1h-1z M109,101h1v1h-1z M111,101h1v1h-1z M114,101h1v1h-1z M118,101h1v1h-1z M124,101h1v1h-1z M100,102h1v1h-1z M102,102h1v1h-1z M103,102h1v1h-1z M104,102h1v1h-1z M106,102h1v1h-1z M111,102h1v1h-1z M115,102h1v1h-1z M116,102h1v1h-1z M118,102h1v1h-1z M120,102h1v1h-1z M121,102h1v1h-1z M122,102h1v1h-1z M124,102h1v1h-1z M100,103h1v1h-1z M102,103h1v1h-1z M103,103h1v1h-1z M104,103h1v1h-1z M106,103h1v1h-1z M109,103h1v1h-1z M110,103h1v1h-1z M111,103h1v1h-1z M112,103h1v1h-1z M114,103h1v1h-1z M115,103h1v1h-1z M116,103h1v1h-1z M118,103h1v1h-1z M120,103h1v1h-1z M121,103h1v1h-1z M122,103h1v1h-1z M124,103h1v1h-1z M100,104h1v1h-1z M102,104h1v1h-1z M103,104h1v1h-1z M104,104h1v1h-1z M106,104h1v1h-1z M109,104h1v1h-1z M110,104h1v1h-1z M112,104h1v1h-1z M113,104h1v1h-1z M116,104h1v1h-1z M118,104h1v1h-1z M120,104h1v1h-1z M121,104h1v1h-1z M122,104h1v1h-1z M124,104h1v1h-1z M100,105h1v1h-1z M106,105h1v1h-1z M109,105h1v1h-1z M111,105h1v1h-1z M112,105h1v1h-1z M113,105h1v1h-1z M116,105h1v1h-1z M118,105h1v1h-1z M124,105h1v1h-1z M100,106h1v1h-1z M101,106h1v1h-1z M102,106h1v1h-1z M103,106h1v1h-1z M104,106h1v1h-1z M105,106h1v1h-1z M106,106h1v1h-1z M108,106h1v1h-1z M110,106h1v1h-1z M112,106h1v1h-1z M114,106h1v1h-1z M116,106h1v1h-1z M118,106h1v1h-1z M119,106h1v1h-1z M120,106h1v1h-1z M121,106h1v1h-1z M122,106h1v1h-1z M123,106h1v1h-1z M124,106h1v1h-1z M112,107h1v1h-1z M115,107h1v1h-1z M101,108h1v1h-1z M106,108h1v1h-1z M107,108h1v1h-1z M108,108h1v1h-1z M109,108h1v1h-1z M110,108h1v1h-1z M111,108h1v1h-1z M115,108h1v1h-1z M116,108h1v1h-1z M117,108h1v1h-1z M123,108h1v1h-1z M124,108h1v1h-1z M102,109h1v1h-1z M105,109h1v1h-1z M108,109h1v1h-1z M109,109h1v1h-1z M111,109h1v1h-1z M112,109h1v1h-1z M113,109h1v1h-1z M114,109h1v1h-1z M115,109h1v1h-1z M119,109h1v1h-1z M120,109h1v1h-1z M121,109h1v1h-1z M102,110h1v1h-1z M103,110h1v1h-1z M104,110h1v1h-1z M106,110h1v1h-1z M107,110h1v1h-1z M113,110h1v1h-1z M114,110h1v1h-1z M115,110h1v1h-1z M117,110h1v1h-1z M118,110h1v1h-1z M119,110h1v1h-1z M120,110h1v1h-1z M121,110h1v1h-1z M122,110h1v1h-1z M123,110h1v1h-1z M124,110h1v1h-1z M100,111h1v1h-1z M105,111h1v1h-1z M110,111h1v1h-1z M111,111h1v1h-1z M112,111h1v1h-1z M113,111h1v1h-1z M116,111h1v1h-1z M118,111h1v1h-1z M120,111h1v1h-1z M121,111h1v1h-1z M123,111h1v1h-1z M124,111h1v1h-1z M102,112h1v1h-1z M106,112h1v1h-1z M107,112h1v1h-1z M108,112h1v1h-1z M109,112h1v1h-1z M111,112h1v1h-1z M113,112h1v1h-1z M115,112h1v1h-1z M116,112h1v1h-1z M117,112h1v1h-1z M118,112h1v1h-1z M119,112h1v1h-1z M123,112h1v1h-1z M100,113h1v1h-1z M101,113h1v1h-1z M102,113h1v1h-1z M110,113h1v1h-1z M111,113h1v1h-1z M112,113h1v1h-1z M115,113h1v1h-1z M116,113h1v1h-1z M119,113h1v1h-1z M121,113h1v1h-1z M100,114h1v1h-1z M102,114h1v1h-1z M104,114h1v1h-1z M105,114h1v1h-1z M106,114h1v1h-1z M107,114h1v1h-1z M109,114h1v1h-1z M111,114h1v1h-1z M112,114h1v1h-1z M114,114h1v1h-1z M115,114h1v1h-1z M116,114h1v1h-1z M117,114h1v1h-1z M120,114h1v1h-1z M123,114h1v1h-1z M124,114h1v1h-1z M100,115h1v1h-1z M102,115h1v1h-1z M103,115h1v1h-1z M105,115h1v1h-1z M112,115h1v1h-1z M113,115h1v1h-1z M115,115h1v1h-1z M116,115h1v1h-1z M118,115h1v1h-1z M119,115h1v1h-1z M120,115h1v1h-1z M121,115h1v1h-1z M122,115h1v1h-1z M124,115h1v1h-1z M100,116h1v1h-1z M102,116h1v1h-1z M103,116h1v1h-1z M106,116h1v1h-1z M108,116h1v1h-1z M110,116h1v1h-1z M112,116h1v1h-1z M116,116h1v1h-1z M117,116h1v1h-1z M118,116h1v1h-1z M119,116h1v1h-1z M120,116h1v1h-1z M122,116h1v1h-1z M123,116h1v1h-1z M108,117h1v1h-1z M111,117h1v1h-1z M112,117h1v1h-1z M114,117h1v1h-1z M116,117h1v1h-1z M120,117h1v1h-1z M122,117h1v1h-1z M124,117h1v1h-1z M100,118h1v1h-1z M101,118h1v1h-1z M102,118h1v1h-1z M103,118h1v1h-1z M104,118h1v1h-1z M105,118h1v1h-1z M106,118h1v1h-1z M108,118h1v1h-1z M109,118h1v1h-1z M111,118h1v1h-1z M112,118h1v1h-1z M116,118h1v1h-1z M118,118h1v1h-1z M120,118h1v1h-1z M121,118h1v1h-1z M122,118h1v1h-1z M124,118h1v1h-1z M100,119h1v1h-1z M106,119h1v1h-1z M109,119h1v1h-1z M112,119h1v1h-1z M115,119h1v1h-1z M116,119h1v1h-1z M120,119h1v1h-1z M123,119h1v1h-1z M100,120h1v1h-1z M102,120h1v1h-1z M103,120h1v1h-1z M104,120h1v1h-1z M106,120h1v1h-1z M109,120h1v1h-1z M111,120h1v1h-1z M115,120h1v1h-1z M116,120h1v1h-1z M117,120h1v1h-1z M118,120h1v1h-1z M119,120h1v1h-1z M120,120h1v1h-1z M121,120h1v1h-1z M122,120h1v1h-1z M124,120h1v1h-1z M100,121h1v1h-1z M102,121h1v1h-1z M103,121h1v1h-1z M104,121h1v1h-1z M106,121h1v1h-1z M109,121h1v1h-1z M110,121h1v1h-1z M111,121h1v1h-1z M113,121h1v1h-1z M114,121h1v1h-1z M117,121h1v1h-1z M118,121h1v1h-1z M121,121h1v1h-1z M123,121h1v1h-1z M124,121h1v1h-1z M100,122h1v1h-1z M102,122h1v1h-1z M103,122h1v1h-1z M104,122h1v1h-1z M106,122h1v1h-1z M109,122h1v1h-1z M113,122h1v1h-1z M114,122h1v1h-1z M119,122h1v1h-1z M121,122h1v1h-1z M124,122h1v1h-1z M100,123h1v1h-1z M106,123h1v1h-1z M108,123h1v1h-1z M110,123h1v1h-1z M111,123h1v1h-1z M116,123h1v1h-1z M120,123h1v1h-1z M121,123h1v1h-1z M124,123h1v1h-1z M100,124h1v1h-1z M101,124h1v1h-1z M102,124h1v1h-1z M103,124h1v1h-1z M104,124h1v1h-1z M105,124h1v1h-1z M106,124h1v1h-1z M110,124h1v1h-1z M111,124h1v1h-1z M116,124h1v1h-1z M117,124h1v1h-1z M119,124h1v1h-1z M121,124h1v1h-1z M124,124h1v1h-1z" fill="#000000"/>
</svg>
